<svg width="129" height="30" viewBox="0 0 129 30" fill="none" xmlns="http://www.w3.org/2000/svg">
<g id="Group 24">
<g id="gaming">
<path id="Vector" d="M121.003 28.9619C119.129 28.9619 117.653 28.6105 116.576 27.9077C115.498 27.2049 114.753 26.3709 114.341 25.4057L116.955 24.3233C117.142 24.6232 117.391 24.9418 117.7 25.2792C118.019 25.6165 118.445 25.9023 118.979 26.1366C119.513 26.3709 120.202 26.488 121.045 26.488C122.198 26.488 123.154 26.2069 123.913 25.6446C124.672 25.0918 125.051 24.2015 125.051 22.9739V19.8956H124.841C124.672 20.2236 124.414 20.5938 124.067 21.0061C123.721 21.409 123.248 21.7604 122.648 22.0603C122.048 22.3602 121.266 22.5101 120.3 22.5101C119.063 22.5101 117.948 22.2196 116.955 21.6386C115.971 21.0482 115.184 20.1861 114.594 19.0523C114.013 17.909 113.722 16.5034 113.722 14.8354C113.722 13.1674 114.008 11.7383 114.58 10.5482C115.161 9.34878 115.948 8.43044 116.941 7.79323C117.934 7.15601 119.063 6.8374 120.329 6.8374C121.303 6.8374 122.09 7.00139 122.69 7.32937C123.299 7.64798 123.772 8.02281 124.11 8.45387C124.447 8.88493 124.709 9.26444 124.897 9.59242H125.122V7.03419H128.088V23.1005C128.088 24.4499 127.774 25.5556 127.146 26.4177C126.527 27.2798 125.684 27.9171 124.616 28.3294C123.547 28.7511 122.343 28.9619 121.003 28.9619ZM120.975 19.9659C122.296 19.9659 123.308 19.5114 124.011 18.6025C124.723 17.6841 125.08 16.4144 125.08 14.7932C125.08 13.7343 124.925 12.8066 124.616 12.0101C124.306 11.2042 123.847 10.5764 123.238 10.1266C122.629 9.66739 121.875 9.4378 120.975 9.4378C120.057 9.4378 119.288 9.67676 118.67 10.1547C118.061 10.6232 117.602 11.2651 117.292 12.0804C116.983 12.8863 116.829 13.7905 116.829 14.7932C116.829 15.8146 116.983 16.7189 117.292 17.5061C117.602 18.2839 118.065 18.8883 118.684 19.3193C119.312 19.7504 120.076 19.9659 120.975 19.9659Z" fill="url(#paint0_linear_40_55)"/>
<path id="Vector_2" d="M102.329 13.4298V22.7491H99.2925V7.03419H102.244V9.62054H102.455C102.811 8.76779 103.369 8.09309 104.128 7.59644C104.887 7.09041 105.861 6.8374 107.052 6.8374C108.12 6.8374 109.052 7.0623 109.849 7.5121C110.655 7.95253 111.278 8.61317 111.718 9.49403C112.168 10.3749 112.393 11.4666 112.393 12.7691V22.7491H109.357V13.1346C109.357 12.0007 109.057 11.1105 108.457 10.4639C107.857 9.80795 107.042 9.47997 106.011 9.47997C105.309 9.47997 104.676 9.63928 104.114 9.95789C103.561 10.2671 103.125 10.7122 102.807 11.2932C102.488 11.8742 102.329 12.5864 102.329 13.4298Z" fill="url(#paint1_linear_40_55)"/>
<path id="Vector_3" d="M94.1963 22.7492V7.03431H97.2325V22.7492H94.1963ZM95.7284 4.61664C95.1943 4.61664 94.7398 4.43859 94.365 4.0825C93.9902 3.72641 93.8027 3.30004 93.8027 2.80338C93.8027 2.29736 93.9902 1.8663 94.365 1.51021C94.7398 1.15412 95.1943 0.976074 95.7284 0.976074C96.2532 0.976074 96.703 1.15412 97.0778 1.51021C97.462 1.8663 97.6541 2.29736 97.6541 2.80338C97.6541 3.30004 97.462 3.72641 97.0778 4.0825C96.703 4.43859 96.2532 4.61664 95.7284 4.61664Z" fill="url(#paint2_linear_40_55)"/>
<path id="Vector_4" d="M70.7989 22.7491V7.03419H73.7085V9.62054H73.9194C74.2473 8.74905 74.7815 8.06966 75.5218 7.58238C76.2714 7.08573 77.1617 6.8374 78.1925 6.8374C79.242 6.8374 80.1182 7.08573 80.821 7.58238C81.5332 8.06966 82.0626 8.74905 82.4093 9.62054H82.578C82.9528 8.76779 83.5479 8.09309 84.3631 7.59644C85.1784 7.09041 86.1483 6.8374 87.2728 6.8374C88.6972 6.8374 89.8638 7.2872 90.7728 8.1868C91.6818 9.07703 92.1362 10.4217 92.1362 12.2209V22.7491H89.072V12.5021C89.072 11.4338 88.7815 10.6654 88.2005 10.1968C87.6195 9.71893 86.9261 9.47997 86.1202 9.47997C85.1269 9.47997 84.3538 9.78921 83.8009 10.4077C83.2574 11.0168 82.9856 11.7899 82.9856 12.727V22.7491H79.9214V12.3053C79.9214 11.4525 79.659 10.7685 79.1342 10.2531C78.6095 9.73767 77.9207 9.47997 77.068 9.47997C76.487 9.47997 75.9482 9.63459 75.4515 9.94383C74.9642 10.2437 74.5706 10.6654 74.2708 11.2089C73.9803 11.743 73.835 12.3615 73.835 13.0643V22.7491H70.7989Z" fill="url(#paint3_linear_40_55)"/>
<path id="Vector_5" d="M60.9797 23.0864C59.9864 23.0864 59.0868 22.9037 58.281 22.5382C57.4751 22.1634 56.8378 21.6199 56.3693 20.9077C55.9008 20.1955 55.6665 19.3287 55.6665 18.3073C55.6665 17.4171 55.8352 16.6908 56.1725 16.1286C56.5192 15.5569 56.9831 15.1025 57.5641 14.7651C58.1451 14.4278 58.7917 14.1748 59.5038 14.0061C60.216 13.8374 60.947 13.7062 61.6966 13.6125C62.6431 13.5094 63.4068 13.4204 63.9878 13.3454C64.5688 13.2705 64.9905 13.1533 65.2528 12.994C65.5246 12.8254 65.6605 12.5583 65.6605 12.1928V12.1225C65.6605 11.2323 65.4075 10.5436 64.9014 10.0563C64.4048 9.569 63.6645 9.32535 62.6806 9.32535C61.6591 9.32535 60.8486 9.55025 60.2488 10.0001C59.6585 10.4405 59.2508 10.9418 59.0259 11.5041L56.1444 10.8434C56.4911 9.8876 56.9925 9.1192 57.6484 8.53821C58.3138 7.94784 59.0728 7.51679 59.9255 7.24503C60.7876 6.97328 61.6872 6.8374 62.6243 6.8374C63.2522 6.8374 63.9175 6.91237 64.6203 7.0623C65.3231 7.20286 65.9838 7.46993 66.6022 7.86351C67.2301 8.24771 67.7408 8.80059 68.1344 9.52214C68.5279 10.2437 68.7247 11.1761 68.7247 12.3193V22.7491H65.7308V20.5984H65.6183C65.4309 20.9827 65.1357 21.3669 64.7328 21.7511C64.3392 22.1353 63.8332 22.4539 63.2147 22.7069C62.5962 22.9599 61.8512 23.0864 60.9797 23.0864ZM61.6404 20.6406C62.4931 20.6406 63.2194 20.4766 63.8191 20.1487C64.4188 19.8113 64.878 19.3709 65.1966 18.8274C65.5152 18.2839 65.6745 17.7076 65.6745 17.0984V15.0603C65.5621 15.1634 65.3512 15.2618 65.042 15.3555C64.7328 15.4492 64.3814 15.5288 63.9878 15.5944C63.5942 15.66 63.21 15.7209 62.8352 15.7772C62.4603 15.824 62.1464 15.8615 61.8934 15.8896C61.303 15.974 60.7642 16.1051 60.2769 16.2832C59.7897 16.4519 59.3961 16.7049 59.0962 17.0422C58.8057 17.3702 58.6605 17.8059 58.6605 18.3495C58.6605 19.1085 58.9416 19.6801 59.5038 20.0643C60.0661 20.4485 60.7783 20.6406 61.6404 20.6406Z" fill="url(#paint4_linear_40_55)"/>
<path id="Vector_6" d="M47.2811 28.9619C45.407 28.9619 43.9311 28.6105 42.8534 27.9077C41.7758 27.2049 41.0308 26.3709 40.6185 25.4057L43.2329 24.3233C43.4203 24.6232 43.6687 24.9418 43.9779 25.2792C44.2965 25.6165 44.7229 25.9023 45.257 26.1366C45.7912 26.3709 46.4799 26.488 47.3233 26.488C48.4759 26.488 49.4317 26.2069 50.1908 25.6446C50.9498 25.0918 51.3293 24.2015 51.3293 22.9739V19.8956H51.1185C50.9498 20.2236 50.6921 20.5938 50.3454 21.0061C49.9987 21.409 49.5254 21.7604 48.9257 22.0603C48.326 22.3602 47.5435 22.5101 46.5783 22.5101C45.3414 22.5101 44.2262 22.2196 43.2329 21.6386C42.249 21.0482 41.4618 20.1861 40.8715 19.0523C40.2905 17.909 40 16.5034 40 14.8354C40 13.1674 40.2858 11.7383 40.8574 10.5482C41.4384 9.34878 42.2256 8.43044 43.2189 7.79323C44.2122 7.15601 45.3414 6.8374 46.6064 6.8374C47.581 6.8374 48.3681 7.00139 48.9679 7.32937C49.577 7.64798 50.0502 8.02281 50.3875 8.45387C50.7249 8.88493 50.9873 9.26444 51.1747 9.59242H51.3996V7.03419H54.3655V23.1005C54.3655 24.4499 54.0515 25.5556 53.4237 26.4177C52.8052 27.2798 51.9618 27.9171 50.8936 28.3294C49.8253 28.7511 48.6211 28.9619 47.2811 28.9619ZM47.253 19.9659C48.5743 19.9659 49.5863 19.5114 50.2892 18.6025C51.0013 17.6841 51.3574 16.4144 51.3574 14.7932C51.3574 13.7343 51.2028 12.8066 50.8936 12.0101C50.5843 11.2042 50.1252 10.5764 49.5161 10.1266C48.907 9.66739 48.1526 9.4378 47.253 9.4378C46.3347 9.4378 45.5663 9.67676 44.9478 10.1547C44.3387 10.6232 43.8795 11.2651 43.5703 12.0804C43.261 12.8863 43.1064 13.7905 43.1064 14.7932C43.1064 15.8146 43.261 16.7189 43.5703 17.5061C43.8795 18.2839 44.3434 18.8883 44.9618 19.3193C45.5897 19.7504 46.3534 19.9659 47.253 19.9659Z" fill="url(#paint5_linear_40_55)"/>
</g>
<g id="Group 1">
<g id="Vector 1" filter="url(#filter0_i_40_55)">
<path d="M0.626014 7.12746L11.8626 26.9914C13.4958 29.8785 17.6547 29.8785 19.2878 26.9914L30.5244 7.12746C32.3255 3.94358 30.0253 -0.00018692 26.3674 -0.00018692C25.7657 -0.00018692 25.1695 0.113482 24.6101 0.334837L20.8065 1.83988C17.4457 3.16966 13.7047 3.16966 10.344 1.83988L6.54034 0.334837C5.98091 0.113482 5.38471 -0.00018692 4.78308 -0.00018692C1.1251 -0.00018692 -1.17503 3.94358 0.626014 7.12746Z" fill="#D9D9D9"/>
<path d="M0.626014 7.12746L11.8626 26.9914C13.4958 29.8785 17.6547 29.8785 19.2878 26.9914L30.5244 7.12746C32.3255 3.94358 30.0253 -0.00018692 26.3674 -0.00018692C25.7657 -0.00018692 25.1695 0.113482 24.6101 0.334837L20.8065 1.83988C17.4457 3.16966 13.7047 3.16966 10.344 1.83988L6.54034 0.334837C5.98091 0.113482 5.38471 -0.00018692 4.78308 -0.00018692C1.1251 -0.00018692 -1.17503 3.94358 0.626014 7.12746Z" fill="url(#paint6_linear_40_55)"/>
</g>
<g id="Vector 1 (Stroke)" filter="url(#filter1_i_40_55)">
<path fill-rule="evenodd" clip-rule="evenodd" d="M12.2339 26.7814L0.997273 6.91745C-0.642927 4.01792 1.45179 0.426357 4.78308 0.426357C5.33098 0.426357 5.87394 0.529873 6.3834 0.731459L10.1871 2.2365C13.6486 3.60618 17.5018 3.60618 20.9634 2.2365L24.767 0.731459C25.2765 0.529873 25.8195 0.426357 26.3674 0.426357C29.6987 0.426357 31.7934 4.01792 30.1532 6.91745L18.9166 26.7814C17.4467 29.3798 13.7037 29.3798 12.2339 26.7814ZM11.8626 26.9914L0.626014 7.12746C-1.17503 3.94358 1.1251 -0.00018692 4.78308 -0.00018692C5.38471 -0.00018692 5.98091 0.113482 6.54034 0.334837L10.344 1.83988C13.7047 3.16966 17.4457 3.16966 20.8065 1.83988L24.6101 0.334837C25.1695 0.113482 25.7657 -0.00018692 26.3674 -0.00018692C30.0253 -0.00018692 32.3255 3.94358 30.5244 7.12746L19.2878 26.9914C17.6547 29.8785 13.4958 29.8785 11.8626 26.9914Z" fill="url(#paint7_linear_40_55)"/>
</g>
</g>
</g>
<defs>
<filter id="filter0_i_40_55" x="-8" y="-6" width="39.1504" height="35.1567" filterUnits="userSpaceOnUse" color-interpolation-filters="sRGB">
<feFlood flood-opacity="0" result="BackgroundImageFix"/>
<feBlend mode="normal" in="SourceGraphic" in2="BackgroundImageFix" result="shape"/>
<feColorMatrix in="SourceAlpha" type="matrix" values="0 0 0 0 0 0 0 0 0 0 0 0 0 0 0 0 0 0 127 0" result="hardAlpha"/>
<feOffset dx="-8" dy="-6"/>
<feGaussianBlur stdDeviation="7"/>
<feComposite in2="hardAlpha" operator="arithmetic" k2="-1" k3="1"/>
<feColorMatrix type="matrix" values="0 0 0 0 1 0 0 0 0 1 0 0 0 0 1 0 0 0 0.25 0"/>
<feBlend mode="normal" in2="shape" result="effect1_innerShadow_40_55"/>
</filter>
<filter id="filter1_i_40_55" x="-8" y="-6" width="39.1504" height="35.1567" filterUnits="userSpaceOnUse" color-interpolation-filters="sRGB">
<feFlood flood-opacity="0" result="BackgroundImageFix"/>
<feBlend mode="normal" in="SourceGraphic" in2="BackgroundImageFix" result="shape"/>
<feColorMatrix in="SourceAlpha" type="matrix" values="0 0 0 0 0 0 0 0 0 0 0 0 0 0 0 0 0 0 127 0" result="hardAlpha"/>
<feOffset dx="-8" dy="-6"/>
<feGaussianBlur stdDeviation="7"/>
<feComposite in2="hardAlpha" operator="arithmetic" k2="-1" k3="1"/>
<feColorMatrix type="matrix" values="0 0 0 0 1 0 0 0 0 1 0 0 0 0 1 0 0 0 0.25 0"/>
<feBlend mode="normal" in2="shape" result="effect1_innerShadow_40_55"/>
</filter>
<linearGradient id="paint0_linear_40_55" x1="121.192" y1="7.7425" x2="121.192" y2="30.2693" gradientUnits="userSpaceOnUse">
<stop stop-color="#96BDEA"/>
<stop offset="1" stop-color="#B5D1EF"/>
</linearGradient>
<linearGradient id="paint1_linear_40_55" x1="106.105" y1="7.48833" x2="106.105" y2="23.6893" gradientUnits="userSpaceOnUse">
<stop stop-color="#96BDEA"/>
<stop offset="1" stop-color="#B5D1EF"/>
</linearGradient>
<linearGradient id="paint2_linear_40_55" x1="95.8056" y1="1.86679" x2="95.8056" y2="24.0358" gradientUnits="userSpaceOnUse">
<stop stop-color="#96BDEA"/>
<stop offset="1" stop-color="#B5D1EF"/>
</linearGradient>
<linearGradient id="paint3_linear_40_55" x1="81.8948" y1="7.48833" x2="81.8948" y2="23.6893" gradientUnits="userSpaceOnUse">
<stop stop-color="#96BDEA"/>
<stop offset="1" stop-color="#B5D1EF"/>
</linearGradient>
<linearGradient id="paint4_linear_40_55" x1="62.4571" y1="7.50213" x2="62.4571" y2="24.0466" gradientUnits="userSpaceOnUse">
<stop stop-color="#96BDEA"/>
<stop offset="1" stop-color="#B5D1EF"/>
</linearGradient>
<linearGradient id="paint5_linear_40_55" x1="47.4704" y1="7.7425" x2="47.4704" y2="30.2693" gradientUnits="userSpaceOnUse">
<stop stop-color="#96BDEA"/>
<stop offset="1" stop-color="#B5D1EF"/>
</linearGradient>
<linearGradient id="paint6_linear_40_55" x1="16.199" y1="27.964" x2="16.199" y2="-1.7231" gradientUnits="userSpaceOnUse">
<stop stop-color="#96BDEA"/>
<stop offset="1" stop-color="#B5D1EF"/>
</linearGradient>
<linearGradient id="paint7_linear_40_55" x1="15.5752" y1="29.1567" x2="15.5752" y2="-0.00018692" gradientUnits="userSpaceOnUse">
<stop stop-color="white"/>
<stop offset="1" stop-color="white" stop-opacity="0.2"/>
</linearGradient>
</defs>
</svg>
